<svg xmlns="http://www.w3.org/2000/svg" width="24" height="22" viewBox="0 0 24 22">
  <path id="iconmonstr-checkbox-20_1_" data-name="iconmonstr-checkbox-20 (1)" d="M5.48,10.089,7.063,8.625a30.449,30.449,0,0,1,5.11,3.063A44.275,44.275,0,0,1,23.484,2L24,3.186C20.035,6.646,17.13,10.5,12.949,18A79.343,79.343,0,0,0,5.48,10.089Zm14.407.557A8.994,8.994,0,1,1,11,3a8.937,8.937,0,0,1,5.274,1.723c.521-.446,1.052-.881,1.6-1.3a11,11,0,1,0,3.592,5.2C20.938,9.255,20.414,9.927,19.887,10.646Z" transform="translate(0 -1)" fill="#feed00"/>
</svg>
