<?xml version="1.0" encoding="UTF-8"?><svg id="Layer_2" xmlns="http://www.w3.org/2000/svg" viewBox="0 0 517.4 956.5"><g id="svg2116"><polygon points="347 893.4 347 893.3 347 893.2 347 893.3 347 893.4" style="fill:#254081; stroke-width:0px;"/><polygon points="243.1 852.2 243 852.3 243.1 852.2 243.1 852.2" style="fill:#254081; stroke-width:0px;"/><polygon points="428.3 665.8 428.1 665.9 428.2 665.9 428.3 665.8" style="fill:#254081; stroke-width:0px;"/><polygon points="477.9 874.9 477.9 874.9 477.9 875.1 477.9 874.9" style="fill:#254081; stroke-width:0px;"/><path d="M113.7,952.6c-1.3,2.1,3.5,1.9,0,0h0Z" style="fill:#254081; stroke-width:0px;"/><path d="M464.9,713.7h-.4c-4,.4,4.5,1.6.4,0Z" style="fill:#254081; stroke-width:0px;"/><path d="M116.1,951.8c-2.4,1.2,4.6,1.1,0,0h0Z" style="fill:#254081; stroke-width:0px;"/><path d="M115.7,954.8c-3.3,2.1,2.5,2.4,0,0h0Z" style="fill:#254081; stroke-width:0px;"/><path d="M203,878.9c0-.2,0-.5-.1-.7-1.7-7.4-1.3,2.7.1.7Z" style="fill:#254081; stroke-width:0px;"/><path d="M197.3,856.9c-2.3,3.2,1.5,4.4,0,0h0Z" style="fill:#254081; stroke-width:0px;"/><path d="M492.3,802.5c-1.4-1.1-1.2,2,0,0h0Z" style="fill:#254081; stroke-width:0px;"/><path d="M479.3,810.5c.4,0,1.3-.2.6-.7-4.8-1.7-6.4,3.7-.6.7Z" style="fill:#254081; stroke-width:0px;"/><path d="M341.1,485.7l-.2-.4c-4.9-2.9-2.6,2.9.2.4Z" style="fill:#254081; stroke-width:0px;"/><path d="M268.3,623.1c6.3,4.7-3-2.6-.4-6.6-2.7.3-.2,5,.4,6.6Z" style="fill:#254081; stroke-width:0px;"/><path d="M517.4,752.9c-.3-3.2-.6-6.6-1.2-9.9-1.3-7.3-4-14.2-11.6-17.7-6-7.5-15.6-7.6-23.8-10.6-5.2-1.4-.5.7-1.9,1.2-6.2-.9-10.8-1-17.6-.7-6.2-2.2-9.3,4.3-10.2,10.1-3,2.7-2.2,8.2-5.5,3-2,.9-3.5.4-4.8-.6,0,0,0,0,0,0-3.3-2.7-5.3-9.1-10.9-5.7.9-3.4,6.2-7.9,9.4-12.1,6-3.6,9.7-9,7-16.1-3.2-9.8-5.8-20-15.4-23.7-.9-1.6-2.1-2.8-3.3-3.8h0s0,0,0,0l.2-.2h0s-.3.2-.3.2h0c-3-2.3-6.7-3.6-9.4-7.5-1.3-6.8-6.8-3.8-11.5-3.8-3.5,3.7-6.3-.9-9-.6-5.9,3-3.7-1.8,1.2-2,5.8,5.3,14.8-4.5,19.2,1.7,3.5,5,8.5,7.5,14.1,5.3,5.7-.4,2.1,8.3,4.4,4.5.2-7.8-7.8-13.7-11.2-20.5-5.1-6.5-11.3-20.8.3-23.9-1.5-2.6-7.3-2.7-9.2-5-.6-.7-.8-1.7-.3-3-6.3-2.3-7.2-7.4-9-13.1-3.3-4.2-3.6-10.1-9.7-11.2-2.5-2.8-5.6-4.3-8.8-5.5,0,0,0,0,0,0-4.1-1.5-8.4-2.5-12.1-5-5-4.1-2.6,3.7-6.5,1.1,2.1-2.9-.8-5.3,1.2-7.6-1.1-.5-2.1-1.2-2.9-2-2.9-2.6-4.3-6.4-5.2-10.4-.6-3.1-1-6.3-1.4-9.1-2.8-6-5.8-10.9-7.5-17.2,1.2-5-4-9-2.1-14.2-2.3-3.9-1.7-7.9-1.5-12.5-1.6-5.1-1.1-9.6-5.2-13.1-4.4-1-2.9,0-4.4-3.4-1.2,1-4,.1-5-3.7-3.3-2.9-6.9-6.7-9.1-10.6,0-.1-.1-.2-.2-.3,0-.1-.1-.3-.2-.4-1.5-4.7-2.8-7.3-5.9-9.1-7.4,1.8-12.9-9.3-19.3-6.8.4-6.8-11.4-7.7-14.2-3.3.2,4.4-5.2,7.2-9.5,7.6-4-2.7-8.8-2.7-13.3-3.3-4.7-.3-10.5-2.5-16-2.5-7.6-1.4,2.3-6.4,5.7-2.1,6.1,4.9,10.7-2.8,17.2-1.8,1.2-5.6,6.9-9.7,11.7-13.3,6.1,3.2,12.8.1,17.1-5.1,1.9-6.3-9.5-4.5-11.1-8.9-.7-.3,3.3-8.1-2.5-7.8-5.7,1.6-11.3,5.9-17.3,8.4-4.9,1.5-6.8-.9-.9-.9,4.6-5.8,11.4-8.9,18-8.4,3.4-2.5,7.7,1.7,8.4-3.4,4-3.3,12.8-7.1,10.3-12.8,3.6-3.3,3.2-5.3,4.3-10.1,4-2.8,10.1-8.3,11.7-14.7-2.2-7.5,7-12.9,5.8-19.6-2.5-10.7,9.2-20.9,12.7-27.3,3.8-2.2-.5-5,2.2-5.9-3.3-2.6-1.9-8.7-3.8-10.7-3.6-4.6-7-7-12.8-7-3.2,3.1-7.5,1-10.8,1-5.6,3.6-14.3-.6-20.8-.2-4.7-2-8.9-2.2-12.9,1.1-9.2,1.5-19.6-10.2-26.6-.2-5.3,1-10.7,1.5-14.5,6.4-2.8,2.9-16.2-1.2-11.3,3.1-2.9,2.7-5.9,8.7-10.5,6.5,4.7-3-3.3-5.9,2.3-4.5,1.5-2.3,4.8-2.3,5.3-5.4,2.7-3.3,6.9-9.1,0-5.2-5-1.6-9.6.2-13.4,5.6-5,6.1-4-.4.6-2.8,1.7-5.9,7.9-3.1,11.4-7.2,3.2-3.5,6-1.9,5.1,2.4,4.5-3.1,8-9.1,11.5-14,1.3-6.3-2.1,1.3-4.4,1.4-5.2,1.9-.8,0-3.9-1.5-3.7,2.3-10.1,1.8-12.3-2.1,3.6,1.3,9.6,1,10.1-3-1-4.1,1-7.8,6-9.4,2.1-4,6-6.5,10-9.5,6.4-4,11-10.4,15.4-16.5,7.8-2.5,13.6-7.7,15.7-15.5,4.2-4.9-1.1-2.9-3.4-4.5-1.6-5.6,5.5-9.5,5.5-14.8-3-1.6-7.6.3-11.1-1.4-2.9,2.4-5.9-1.5-7.4-1.4-.6,0-.9.7-1,2.6,6,4.8-1.5,3.1-4.8,3.5-3-.2-3.4-2.8-7.9-1.6-5,5.2-10.7,6.1-17.3,5.2-1.3-7.2-2.4,3.9-6.4-.2-1.8,3.4-4,.5-5.6,3.5-.1.2-7.1-1.9-9,3.3-.9,4.2-4.8,6.4-1.8.6,7.5-5.1-9-12.7-6.7-5-3.9,2.4-4.8,8.1-8.3,9,2.2-4.5,8.1-10.2.9-12-2.3-5.2-.4-.2-3.2.9-.9-4.5-6-4.3-9.5-5.9-.9,2.1,0,4.6-1.1,6.7-4.5,3.1-5.4,8.7.4,9.6,4.2,4-4.3-.9-3.7,3.4-1,.5,6.8,4.7.5,2.4-3.4-3.8-4.9,7.3-2.7,6.9-2.5,3.8,9.8,6.8,8.6,6.8.7,3.3-.8.2-3.6.1-3.6-3.2-4.9,1.1-8.3.2-3.9,3.7-7.6-2.1-9.6.5,2.9,3.1,3.6,8,7.9,9-2,1.9-.3,2-1.8,3.3,3.7,4.7-2.9,3-4.8,4.1-1.8-5.3-7.3-2.1-2.9,1.5,2.4,2.7,6.9,7,11.6,9-2.4,3.4,1.5,5.1,4.7,7.7,2.4,6.3,0,.8-3-.8-2.5-4.2-7.5-1.2-9-5.1-6-.4.2,3.2,2.7,5.4,6.8,3.3-1.5,2.7-3.4-1.1-5.7-5.5-3.4,7.6-9.1,1.8,0-4.4-5.2-7.1-5.5-1.4,1.3,2.4,5.1,7.8,2.3,8.9-.6,1.4-1.7,2.9-3.1-1.4,0-6-2.8-5.9-7.5-5.4.8,4.1-1.8,13,5.2,12.7,4.4,5.1-3.1.3-3.7,3.8-4.2,4.6,2.9,4.9,3,9.5,2.4,1.7,2,3.5,7.4,2.7,7.4,2.9-5.9.3-3.4,3.3-2.3.4-3-4.4-5.2-3-4.7-7.7-6.9,4-5.7,9.2,3.7.1,2.5,3.3,2.5,5.4-1.2,6.7,7.3,1.9,9.8-1.2-3.1,6.5,5.5,3.4,7.9-1.2,1.8,2.4-6.5,7.4-10.5,7.1-7.3,4.7,1.8,6.5,6.1,5.5,1.7,2.1,7.7,4.6,7.1,5.3-4.7-.3-6.6-6.6-11.6-2.7.4,3.1-.7,5-2.6,8.3,2.9,1.5,7.1,2.4,8.5,5.1,6.7-1.9,1.3,1.9-2.2.4-3.4-6.5-14.9,1.4-9.4,5.7,5.2-2.9,2,5.6,7.5,4,7.2-2.5.2,1.7-3,1.2-2.7-2.6-8.5-5.8-9.2.4-1.9,2.7-.3,6.3-1.7,6.8-6.3,2.2,4.5,1.2,7.4,1-5.7,1.7.6,4.9,2.2.7,2.1,3.9-8.5,2.1-8.6,5.9,5.4,1.4,3.1,4.3-.4,3.5-.7.1-1.4,4.1-4.4.2-4.4,1.4-10.9.3-13.9,4h0c-.7,6.9,9.8,3,13.4,4.4,4.5,2.6,7.8-2.6,12-2.3,2.4,3.2,12.4.2,4.4,2.7-4.7-2.4-8.4-1.2-12.1,2.4-8.5-3.1-6.8,5.8-1.1,9,5.4,1.1,6.2,1.3,9.9,4.2,6.5.5,9.8-11.3,14.9-12.7,1.9-4.6,6.2-4.6,7.7-8.5.1-1.5,7.3-9.2,5.7-5.6-3.1,3.9-8.8,10.3-.2,10.3,6.3-3.6.8,2.4-2.7,0-6,.3-5.2,4-8.2,6.5-2.5,2.9-4.1,9.7,1.3,6.5,6.5-3.2,1.6.9-1.7,2.2-3.8-3.6-6.6,6.7-3.5,1.7.9,1.7,2.4,3.9,5.4,3.3,8.6,1.3-3.6.5-5.7.5-2.9,5.8-7.8,10-7.6,17.2.5,3.2,3.3,3.9.2,7.5-3.2,7,.9,2.8,3.2-.9,1.7,1.6-4.1,7-.4,8.9-4.6-1.2-5.4,5.9-8.4,9.3-.6,7,1.5,0,3.5-2.5,4.6-6.8,2.1,2.1-2.1,5.7-3,5.5,1.7,5.1,4.2,1.1.8,1.4-7.2,8.5-2.9,12.5,2.9,4.8,6.6-1.6,9.3-5-.4,4.6-7.7,8.6-9.6,14-1.9,5.3-3.8,12.5-3,19.2-1.5,4.7-6.8,8-5.1,14.2,5,2.9,17.2-1.2,14.3-8.4-4-2.3-.4-3.5.6-7.2.5-3.7,3.3-8,2.3-10.3-2.1-5.9,3.4-12.7,7.9-16-3.3-7.2-6.9-12.7-6.6-20.8,1.3,2.2,5.4,0,6.6-3.5,1.7-6.8,10.6-7.4,11.8-14.1,1-.3,8.2-5.6,6.8-2.7-6.3,1.7-5.6,8.3-11.1,10.2-4.2,3.7-9.3,9.8-9.2,15.4-1.3,5.4,1.6,10.5,7.2,11.4-2.1-4.3-.6-7.3.5-11.5.3,1.7,8.3,8.8,5.1,1,1.8-4.9.9,7.8,4.2,8.2,3.6-1.7,5-10.1,4.3-11.7,2.4-.3,2.1-8.3.8-11,.5-8.5.4,6.1,3.5-.3.8.7-4.5,8.4-.3,11.7,7.2,2.1.6-3.2.4-6.5,3.2,2.7,8.4,10.8,15.4,11,4.1,1.9-6.8-.3-9.2-.4-7.6-6.1-11.1,5-9.2,11.5,5.5,4.5-4.9,9.4,2.4,11.8,1.2,4.6,10.2,4,9,10.5.3,1.1,4.6,5.5,1.5,9.2-6.2.8-6.1,7.1-9.9,10.5,1.2,8.2-6.3,12.3-9.1,18.4-3.7,6-1.3,12.1,1.7,17.3-6.4,3-1.6-10.6-8-8.2-5.9,6.5,2.3,16.2,6.7,21,4.5,2.8.2,9.8,6.7,11.2,1.3-1.1-.3-5.8-2.1-8.5-3.3-4.9-2-9.3,4.1-11.2,2.8,1.6,6.8,4.9,10.6,6.5,3.8,3.3,6.3,8.9,12.4,9,3.1-1.9-.9-7.8,1.6-9.3-1.6-3.1-6.5-6.2-2.6-9.9,1.1,0,2.8,6.5,7,5.6,4-5.3,1.2,2.2,4,3.7,4,4.5,4.4.5,6-3.5-1.6,4.7,2.7,8.2,6.6,4.2,5.6-2.3,2.8-4.1,4.8-7.4-.2.9,2.1,2.9,5.7-.4,4.9.9,8.4-.7,6.9-6.1-1.5-5.4,1.8-1.1,3-3.2,2.9-.2,6.8.7,10.9,1.3,4.1.6,7.7-.3,11.5-.9h0,0c1.2-.2,1.6-.3,1.7-.5,0,0,0,0,0,0,3.4.2-5.6,3.9-.4,3-.8,5.8-9.6-3.2-12.3,3,2.9,1.3,1.1,5.3-2.1,2.7-2.2-.6-6.3,7.2-5.6,10.7-6.5,5.3-5.8,14-9.3,20.4,1.6,7,12.2,12.8,11,21.1,1.2,3.4,6.9,10.4,8.2,4.8,1.5-9.3,2.8,3.9,0,4.5-.5,3.5,1.1,5.4,3.7,7.5.6.8,3.6-3.8,5.1-6.7,1.3-6.2,2.4-.5,5.3.1,1-1.7,8.5-6.2,5.5-2.8.2.3.5.6.7.9,0,0,0,0,0,0,3.1,4.7-.1,7.6-3.7,11.2,0,4.5,3.8,2.3,2.4,5.9,1.7,2.5-5.1,2.6-8.4,3.3-3.2,7.3-2.7,21.4,8.9,16-.7.6-1.5,1.2-2.4,2h0c0-.1,0-.2,0-.2h0s0,0,0,0h-.1c0,0,0,0,0,0h0c0,0,0,.2,0,.2h0c-3.6,3-8.7,7.2-10.3,12.7,3.4,5.6,3.8,13.6,10,17.3,1.1,2.2,3.4,2,5.2,1.6.2,0,.3,0,.5-.1h.4s.6.1.6.1l.7.6h.6s.2,0,.2,0c0,.2-.2.5-.4.8-5.2,8-12.8-3.3-13.5-9.1-8.4-.8-7.2,6.7-5.6,11.2.4,1.1.9,2.1,1.2,2.7.5.5.8.8,1,.9-1.6-.9-2.7-1.2-5-3.5-7.5-10.8-16.5,2.7-25.5.2-2.5-1.7-11.3-6.5-6.4-.5-3.7,1.9-11.1,5.9-16.6,6.1-2.5,2.4-6.1,9.6-8.2,8.9,0,4.8-3.3,9.5-7.8,12.7-6,3.1-11.3,7.2-13.6,13.8,1.7,1.5,2.9-1.5,5.5-.9,3.3-4.1,5.8,3.3,7.9,1-.9-6.9,8.4-9.9,14.9-9.5,6.8,1.9-.1,8.7,4.6,11.8.9,4.3,5,2.5,5.2,2.9-5,2.5-9.3,11.5-2.2,14.9,3-1.4,4.3-.9,3.8,0-.3.6-1.5,1.4-3.5,1.7-2.6,1.6-1.9,10.5-4.7,14.6-3,7.6-10.8,9.8-16.1,14.1-2,4.5-10.3.4-12,4.1-2.2,0-3.4,4.9-7.1,5.6.8,4.9-4.5,0-5.5,3.3-1.3-.3-8.1-4.1-6.7,1.3-1.9,3.6-8.3,4.1-10.7,6.8-2.7,5.9,5.6,0,8.7,4.2,2.3,5-.2,6.8-3.8,8.7-4.3.6.9,2.1,1.5,4.6,0-5.5,7,.1,11-2.1,8.1-1.3-3,2.7-4.6,1.9-1.4.6-6.4,0-.9,2.2,0,3.2,4,5.4,7.1,4.1,2.2-4.6,7.6-1.5,10.5-4.1-.3-7.4,8.2-5.5,13.6-6.5-2.3-4.9,1.2.2,2.7-2.9-.2,1.7,5.5,5.8.7,4-1.5,3,5,5.5,8.3,3.7.5,1.1,1.5,1.5,2.4,1.5,2.5,0,5.4-2.1,3.2,1.1-4.6,3.8-7.6-1.2-10.4,3.1-.5,3.7,2.2,6.5,5.8,5.2,2.5-2.5,6.9-1.2,10-1.4-4.1-4.1,5.7-5.9,7.1-3.9,4.6,2.4,3,11.6,8.5,10.7,5.5,8,16.7,9,24.7,5.4-.5-3.7,2.1-5.8,4.9-8,1.5-1.1,3-2.3,4.1-3.6,2.4,2.3,7.9.2,11.8-1.9h0c.2-.3.3-.7.4-1,0,0,0,0,0,.1,5.5-2.7,8.8-10.7,15.3-12.9,2-3.5,4.1,0,.3.9-1.4,1.1-2.6,2.3-3.8,3.7h0s0,0,0,0h0s0,0,0,0c-4,4.5-7,10.3-10.2,15.3-5.6.2-9.2,8.5-12.6,9.6-.3,4.4-3.2,3.6-2.4,7.6,2.2,4.9-1.5,8-6.6,6.5-5.9,3-12.9,2.5-18.1-1.2-3.7.5-7.8-.6-11.9-.6v-1.6s.2-.8.2-.8l-.3.8v1.5c-1.2,0-2.4,0-3.5.3-.6.1-1.4.2-2.1.3-6.1.5-15.7-.2-17.2,4.2-4.3,2.6,2.9,7.2-2.3,10.6-3.4,6.7-9.1.5-13.7,1.2,0,2.6.6,5.3-.9,7.6,0,0,0,0,0,0,1.3,7.1-2.2,12.5-6.7,17-5.5.9-2,9.6-9.1,8.7-3.8-.6-2.1,1.6-3.9,2.4-4.5-1.1-4.3,5.4-5.5,10.2-6.1-.3-3.1,5.5-7.6,7.8-2.5,4.7-8.7,5.4-10.9,9.7-4-3.2-8,1.1-12.7,2.8-1.7,2.4-2.6,7.4-.2,9.2,7.7,3.2,5.5-9,11.7-5.8,7.5.4,9.1,7,12.1,11.9,1.1-.9,3.1-4.4,5.8-4.4,5-3.6-4-5.7.2-7.4,2.8-2.7,0-4.4,2.7-7.6.5,0,1.2,4.8,1.1,5.5,2-3.2,3.9-4.2,6.5-6.1,4.9.3,4.9-3.3,5.8-6.7.8-4.4,4.4-.1,5.7-1.2,6.9,1.8,11.8-4.3,18.8-1.8,2.3,5,7,0,2.2-1.2,6-2.2,5.7,7.7,11.9,4.7,4.8-2,6.3,7.4,10.3,6.2,4.1,2,7.2-.3,7-5.1,3.4-2.1,2.8-5.5,5.5-3.9,3.9-4.4-.7-3.8-1-8.1,5.6-.5-.5-5.6,4-8.8,3.5-2-2-12.7,1.9-6.5,2.5,7.6,7.2-3.2,11.7-3.2,4.1.6,7.9-1.2,11.6-2.3,0,0,0,0,0,0,0,0,0,0,0,0,3.4-1,6.8-1.3,10.3,1.1,5.6,3.9,16.2,7.6,14.8,15.1.8-.6.8-2,1.7-2.6-2.5-3-1.6-9.3,4.6-6.8,7-.3,12,3.8,18.2,3,2.7-2.7,1.9-4.3,1.4-6.5-3.9.2-4-2.2-6.2-1.1-2.5-.9,2.5-2.5,4.9-2.2,1.2,5.8,5.6-3.2,10.3.2.3-.3.7-1.6,2.1-2.1h0c0,0,.5,0,.5,0l.2-.2c.6,0,1.2,0,2.1.1,0,0,.1,0,.2.1v.3c-.1,0,0-.3,0-.3,4.9,3.2,6.4-.7,10.9-2.7,7.6.4,6.5-6.2,1.5-9-7.2-3.9,2.2-.9,4.2,2.3,3.2,1,8.1,8.7,10.1,4-3.1-3.1-1.2-3.9,2.4-2.7-4.3,3.1,1.7,7.3,1.9.9,4.5-4.3.1,5.1,1.5,3.9,4.7,2.3,1-8.7,3.8-3.6-.2.1.9,0,1.8.2h0c0,.1,0,.4,0,.4v.2h0s0,.3,0,.3l.2,1c-.2.1-.3.3-.6.4-1.3.7.3,2.4,2.4,3.6,2.4,1.4,5.4,2,4.6-.9,1.9-1.6,12.5-2.6,17.9-3.7,11.1-5,21.9,2.9,32.4,5,4-7.5,12.9-7.6,20.4-10.2,3.6-6.2,9.5-4.8,15.4-3.4-.4-1.6-.4-3.1-.1-4.5v.4c.1,0,.1,0,.1,0h0s0-.2,0-.2v-.2c1.1-5.1,6.6-8.8,11.9-9.2,5.8-1.2,12.8-6.1,9.6-13.4-3.9-5.4,3.7-5,2.6-10.4-1.7-.7-3.7.1-5.5.3-9.3-.8-17.9,5.7-26.8,2.2,3.2.9,11-1.6,3.7-4.9-3.6-1.9-7.4-1.3-7.6.5-1.2,0-1.3,4.2-5,2.2-6,1.2-.6-5.3,3.2-3.7,4.9-2.9-6.3-4.8-9.1-3.9-1.2.6-7.4,4.9-4.8,2.1.3-.9.8-1.6,1.3-2.1,0,0,0,0,0,0h.6-.6c2.6-2.5,7.6-1.5,10.2-3.6,4.6.9,10.2.5,13.5-4.2,4.7-3.6-1.6-2.1-2.4-1.7-5.5-3.6,1.9.4,3.7-3.3,3.5-5.2-.9-10-5.7-5.6-1.9.9-4.8,1.2-4.8-1.4,6.5,1.5,7.4-5.6,13.2-5.7,3,5.4,10.7,1.9,13.8-2.7,3.3-5.4-1.1-.2-3.4-2.8,2-2.3,7.4-6.6.3-5.4-5.9.8-4-2.5.4-.8,6.2,2-1-6,3.3-2.1,2,7.5,6.8-.6,8.9-4.7,0,0,0,0,0,0,.1-.2.2-.5.3-.7,6.4-.7,8.3-8.1,8-14.1,1.3-7.7,6.7-14.6,6.9-22.2Z" style="fill:#254081; stroke-width:0px;"/><path d="M360.7,893c-1.4,2.1-6.6.3-8.7,5.1.9-.2,9.5,2.6,12.1,6.6,7.5,2.8,6.1-6.3,11.9-7.3h0c1.5-1.2-1.4-2.6-1.5-3.9-4.9.3-9.9-6.4-13.7-.5Z" style="fill:#254081; stroke-width:0px;"/><path d="M348.8,127.7c-3.4,5,.9,4.1,1.5.1.7-.7-1.2-.5-1.5-.1Z" style="fill:#254081; stroke-width:0px;"/><path d="M311.2,144.2c1.1-2.5-1.3,0-2.2,0-2.6,4.1,1.9,3.8,2.2,0Z" style="fill:#254081; stroke-width:0px;"/><path d="M297.2,160.9c3.3-5.8,4.2,1.1,6.6-4.2.8,5.9,1.5-4.5,6.1-2.4,2.2-9-7.3,4.9-8.4.4,5.8-4.3-4.2-2.6-1.5,1.6-4.6.8-6.1,10.3-2.8,4.6Z" style="fill:#254081; stroke-width:0px;"/><path d="M300,174c4.5-.5,3.2-1.2,2.9-4h0c1.2-1.5-1.9.4-2.3-.2.7-2.6-.2-3.8-3.8-3.4,4.2,3.2.2,3.5-1.1,7.2,1.9.9,3.8-5.6,4.3.4Z" style="fill:#254081; stroke-width:0px;"/><path d="M289.7,173.6c-1.3-1.5-1.5,1-2,1.8-2.7-1.5-5.1.6-3.4,2.9,5.1,1.4,4.7-.1,5.3-4.7Z" style="fill:#254081; stroke-width:0px;"/><path d="M266,184.9c2-2.2-.2-4.8,1.5-5.6,4.5-2-2.2,7.5,2.5,10.2,5.1,0,6.9-2.4,12.2-4.2-1,5.7,3.3,5.5,6.4,7.8,1.4-4.9,6.9-2.8,6.9-7.6h0c-.3-1.2-3.2-1.5-3.4.2-4.6,2.4-4.3-1-1.1-2.4-1.5-2.2-5.6,2.4-5.6-.8-1.8-3.8-3.1.9-6-2.4-1,2.5-5.4,3-5.5.9,2.3-3.9,5.3-3.4,6.3-6.1-3.7-1-2.4-4.5-5-4.9-4.6-4.8-14.9-2.4-12.7,5.4-1.8,2.6,0,13.4,3.5,9.7Z" style="fill:#254081; stroke-width:0px;"/><path d="M285.7,194.2c-2.4-1-4.7,3.8,1,1.6.9-1.4-2.4.6-1-1.6Z" style="fill:#254081; stroke-width:0px;"/><path d="M285.6,198.7c2.8-4.6-13.9.3-4.2,0-3.4,1.6.5,2.4-.5,6.1,5.3,6.1,1.6-4.4,4.7-6Z" style="fill:#254081; stroke-width:0px;"/><path d="M277.8,205.7c-.4-2.1-2.4,3.4,0,0h0Z" style="fill:#254081; stroke-width:0px;"/><path d="M274.8,211.5c-2.1-3.3-2.3,5.6,0,0h0Z" style="fill:#254081; stroke-width:0px;"/><path d="M272.2,192.8c-2.9-.8,1.6,2.6,0,0h0Z" style="fill:#254081; stroke-width:0px;"/><path d="M272.2,195.5c-2.9-.7,1.2,4,0,0h0Z" style="fill:#254081; stroke-width:0px;"/><path d="M276.1,197.8c-.6-1-3.1-.6-.2-1.5-2.8-3.3-3.5,6.5.2,1.5Z" style="fill:#254081; stroke-width:0px;"/><path d="M260.8,193.7c1.7,4.5,4,11,10.1,8.6,5.8-2.7-1.8-2-3.4-1.3,3.8-2.2,3.4-2.6,2.7-5.5-1.2-2.6-2.1-3.8-4.8-5.2-2-6.1-11,3.3-4.7,3.4Z" style="fill:#254081; stroke-width:0px;"/><path d="M266.7,188.1c-3.7-2.5-1.7,2,0,0h0Z" style="fill:#254081; stroke-width:0px;"/><path d="M281.7,173.3c-3.1-2.1-.6,2.3,0,0h0Z" style="fill:#254081; stroke-width:0px;"/><path d="M275.4,167.5c3.2,4.4,6.7.4,6.5-2.6,1.3-2-2-1.8-3.2-.7-1.5-4.7-7,.8-3.2,3.3Z" style="fill:#254081; stroke-width:0px;"/><path d="M284.6,166.1l-.2-.3c-3.7-2.2-.7,7,0,.6v-.3Z" style="fill:#254081; stroke-width:0px;"/><path d="M282.3,169.8c-4.7-1.7-3.1,3.2,0,0h0Z" style="fill:#254081; stroke-width:0px;"/><path d="M285.8,156.1c-1.5,4.7,3.3,1.5,1.6-.8-1.5-3.6-9.3-3.3-5.1-7.5,0-2.4-2.4-.2-2.2,1.5-6.2-.8-1.7,2.3-.5,5.8,2.2.7,2.2-3.7,6.2,1Z" style="fill:#254081; stroke-width:0px;"/><path d="M286.5,145.7c-.4-2.8-1.6-.8-1.5.6-1.5,5.3,1.6,3.9,1.5-.6Z" style="fill:#254081; stroke-width:0px;"/><path d="M289.1,160.1c-1.6-.4.6,4.3,0,0h0Z" style="fill:#254081; stroke-width:0px;"/><path d="M290.4,167c4.2,2.9-.3-4.3,3.2-6.7-1.9-3.4-4-4.7-3.1,1.1-.9,2.6-3.2,1.7,0,5.6Z" style="fill:#254081; stroke-width:0px;"/><path d="M293.8,157.6c-3.1-1.7,1.6,3.3,0,0h0Z" style="fill:#254081; stroke-width:0px;"/><path d="M144.9,444.4h0c-3.7,2.5-11,6.9-13.7,12.5-3.4,6.5,6.1,1,7.5,3.3,2-4.9,7.2-10.6,6.2-15.8Z" style="fill:#254081; stroke-width:0px;"/><path d="M150.6,437.5c-2.8.3.7,4.8,0,0h0Z" style="fill:#254081; stroke-width:0px;"/><path d="M147.1,436.6c-.7,7.4,3.2-.5,1-2.8-1.8-1.7-.5,2.2-1,2.8Z" style="fill:#254081; stroke-width:0px;"/><path d="M150.5,429.3c-6.5-2.1-.5,9.5,0,0h0Z" style="fill:#254081; stroke-width:0px;"/><path d="M154.9,420.8c-7.9.7-2.7,6.6,0,0h0Z" style="fill:#254081; stroke-width:0px;"/><path d="M145.7,440.3c-7.3.9,1,6.7,0,0h0Z" style="fill:#254081; stroke-width:0px;"/><path d="M145.1,438.1c-1.7-.9,0,3,0,0h0Z" style="fill:#254081; stroke-width:0px;"/><path d="M142.5,435.4c-1.5-1.3-1.8,2.4,0,0h0Z" style="fill:#254081; stroke-width:0px;"/><path d="M123.1,446.5c-1.7-.3-5.8,2.7-6.5,6.5,2,3.6,5.1-1.7,6.5-6.5Z" style="fill:#254081; stroke-width:0px;"/><path d="M119.3,455.4c-1.3-3-3.9,3.8,0,0h0Z" style="fill:#254081; stroke-width:0px;"/><path d="M115.3,405.8c-.5,1-4.3,6,2.1,4.7,5,1.3,6.5,7.2,12,2.8,1.8,4.1-7.6,3.3-7.7,8.2-5.8,4.7,2.8,4.2,5.8,2.1,5.5-1.1-6.1,5.8-9.1,3.6-.4,1.9-1.7,2.4-3.7-.4-6.7-.6.7,10.8,2.9,5.2,7.4,0,13.9-2.3,19.5-6.1-4.7,6.4,8.5,2,8-2.7-4.7,2.8-1.8-3-.9-1.4,3.4,2.6,2-2.9,3.2-4.3-2.3-1.8-6.8-6-9.6-6-4.5.4-6.7-2.6-8.6-6.8-1-6.3-12-7.2-9.6-.8-1.1-2-8.4-.3-4.4,1.8Z" style="fill:#254081; stroke-width:0px;"/><path d="M158.2,408.5c.2-2-6.5,4.7-7.1,6.1-3.6,4.8,6.1-3.1,7.1-6.1Z" style="fill:#254081; stroke-width:0px;"/><path d="M112.3,431.2c1.1,5.1,1.4.3,0,0h0Z" style="fill:#254081; stroke-width:0px;"/><path d="M110.9,427.6c-3.3-3.5-4.6,7.6,0,0h0Z" style="fill:#254081; stroke-width:0px;"/><path d="M122.6,416.2c.8-.7-.6-.9-1-1.3-5.8-3.9-4,3.4,1,1.3Z" style="fill:#254081; stroke-width:0px;"/><path d="M116.8,413.9c-.8-2.6-4.1,2.4,0,0h0Z" style="fill:#254081; stroke-width:0px;"/><path d="M106.2,416.9c.2-2.5-2.1,2.6,0,0h0Z" style="fill:#254081; stroke-width:0px;"/><path d="M109.1,413.8c-1.5-1.8-.9,3.9,0,0h0Z" style="fill:#254081; stroke-width:0px;"/><path d="M87.7,410c-4.5-.1-8.8,3.1-6.4,7.1,4.8,2.8,2.6-4.7,7.8-3.2.6-3.2,3.2-2.2,5-4.2-1.2-3-3.7.5-6.4.3Z" style="fill:#254081; stroke-width:0px;"/><path d="M95.6,406.5c4.3-.3,10.6-3.3,11.9-9.7h0c.5-2.2-5.1,1.1-5.9,2.6-2.7,1.6-7.4,7.5-6,7Z" style="fill:#254081; stroke-width:0px;"/><path d="M138.9,387c-.8-3.6-5.3.9,0,0h0Z" style="fill:#254081; stroke-width:0px;"/><path d="M119.3,382.7c-2.8-3-3.7,2.7,0,0h0Z" style="fill:#254081; stroke-width:0px;"/><path d="M121,375c-4.5,3.7,5.9,6.2,4-.5-2.7-5.5-2.1.9-4,.5Z" style="fill:#254081; stroke-width:0px;"/><path d="M116.3,364.1c-1.9-4.8-11.9,2.9-7.5,4,1.7,4.8,9.1,7.2,9.2,0-.4-1.2,1.1-3.2-1.7-3.9Z" style="fill:#254081; stroke-width:0px;"/><path d="M103.4,361.6c-6.4,1.6-1.2,3.1,2.5.8.2-1.2-1.8-1.2-2.5-.8Z" style="fill:#254081; stroke-width:0px;"/><path d="M106.9,364c-1.7-2.1-3,.8,0,0h0Z" style="fill:#254081; stroke-width:0px;"/><path d="M121.8,331.2c1-1,2.5-10.7,1.4-15.8-.7-1.7-1.3-5.1-3.9-5.4.2-3.3-7.7-8.4-6.4-5.1-2.5,3.1-5.5,7.1-1,9.7-5.5,2.6,6.5,12.7-.2,7.7-1.5-6.6-3.7,5.9-3.3-.4.5-.4-5.2-1.9-7-5.3-1.1-7.1-5.3-1.6-1.9,2.1,3.7,3.8,1.4,2.6-.5,4.5,2.1,3.8,2.8,7.1-1.6,3.1-.7-4.6-7.3-5.6-4-.2-.3.1-5.4,1.2-1.4,3.2,1.1,4.8,5.1,6.1,9.5,8.2.1-2.7,2.1-10.2,2.5-4.1,1.5-2.9,2.7-.2,3.4,2.3,3.4-1.3,3.2,1.4,6.2,4.5-.2,1.3-6.2-6.4-7.5.5.4,2.3,4.7,6.3,6.1,6.3-5.5,3.8,7.9,2.4,2.4,5.3,1.5,2.6,8.7-3.8,10.5-.5-.9,8.1,4.7.4,3.9-3.4,1.4,2.9,4.9,5.1,8.7,2.7,1.2,1.5-9.8,3.3-7.8,8.7-2.6,3.6-.9,8.7,3.4,4.3,2.1-3.2,6.4-6.4,7.4-9.9-.4-3.4,8.5-3.2,6.8-9.2-1-2-3.3-1.9-5.3-2.1-4.5,5.6-9.8-1-14.4-.3-.6,0,.8-3.8-2.5-4.5-2.5-2-.1-6.8-3.6-7Z" style="fill:#254081; stroke-width:0px;"/><path d="M139.2,336.4c-2.8-1.8,1.5,2.9,0,0h0Z" style="fill:#254081; stroke-width:0px;"/><path d="M138.6,342.5c-1.8-1.3-1.1,2.4,0,0h0Z" style="fill:#254081; stroke-width:0px;"/><path d="M134.5,340.3c-8.8-8.3-3.9,8.7,0,0h0Z" style="fill:#254081; stroke-width:0px;"/><path d="M132.7,315.1c-4.7,0-1.3,13,0,0h0Z" style="fill:#254081; stroke-width:0px;"/><path d="M130.4,336.3c-.6-4.1-2.2-8.8.9-13.2-1.4-2.9-.7,4.2-3.2,3.1-2.4,2.4-3.2,15.2,2.2,10.1Z" style="fill:#254081; stroke-width:0px;"/><path d="M112.2,285.2c-3.4-1.5,2.5,5.3,0,0h0Z" style="fill:#254081; stroke-width:0px;"/><path d="M109,300c-2.9-.9,1.4,2.3,0,0h0Z" style="fill:#254081; stroke-width:0px;"/><path d="M149.5,291c-3.4-2.2,2.2,4.1,0,0h0Z" style="fill:#254081; stroke-width:0px;"/><path d="M157.1,285.7c-2.2-1.2,2,3.9,0,0h0Z" style="fill:#254081; stroke-width:0px;"/><path d="M169.2,281.3c2.1-.7-1.5-1.8,0,0h0Z" style="fill:#254081; stroke-width:0px;"/><path d="M160.3,275.3c.4-4.2-4.2.2,0,0h0Z" style="fill:#254081; stroke-width:0px;"/><path d="M158.9,278.4c1.2-1.3-2.7-.5,0,0h0Z" style="fill:#254081; stroke-width:0px;"/><path d="M155.4,280.1c.9-2.4-3.5-.2,0,0h0Z" style="fill:#254081; stroke-width:0px;"/><path d="M172.2,240.8c1.2-3.2-3.4,1.5,0,0h0Z" style="fill:#254081; stroke-width:0px;"/><path d="M77.6,270.8c-1.7,1.5,4.5.9,0,2.8-4.1.9-3.8,3.8.3,6.4,4,0,9.3,1.6,10.8,4.9-1.9.4-9.9-1-5.2,2.3.2.6-4.3,2-5.4,3.8-2.4,4.8-1.3.5-5.1-.2,1,3.2,6.9,8.8,9.2,10.1,2.5-2.6,3.8-8.1,7-7.6.7-.3,4.7-1.7,2-4.3-5.3-5,4.3-.9,5.1-3.3-1.2-2.6-5.6-9.7-1.2-13.3-1.1,2.7-.6,10.1,4.3,11-1.6-6.4,2.7,3.6,3.5-1.2,2.8.8,7.6-5.7,1-7.3-.2-1.5,10,3,8.5-4.1-.4-6.7-2.5-3.1-8-2.9,1.4-1.6,11.2-2.9,7.7-7.8-2-4.6.7-1.6,2.7-2.1,3.3,1.2,7,1.6,9-2.5.8-8.9-5.6,4.7-10.2.3,0-2.7,4.7-7.6,8.2-10.7,1.2-.6-3.6-4.9.7-7.5-.7-4-1-6.8-4.7-9.5-2.2,4.9-11.5,7.5-13.9,14-2.4,1.8-7.9.9-10.2,4.6-6.5,1.5-2.2,9.1,1.5,12.1,0,3.2-7.6-3.6-8.3,1.3-5.8-1.8.2-2.5-3.3-5.1-.9,1.4-5.6-3.4-5.7,2.2,5,3.2-2.1,1.1-2,3.4-2.6,3.4-.5,8.1,2,10.2Z" style="fill:#254081; stroke-width:0px;"/><path d="M91.5,256c-.9-1.1-2.1-1.3-2.5-2-6.1-5.5,2.1,7.2,2.5,2Z" style="fill:#254081; stroke-width:0px;"/><path d="M88.1,257.1c.3-1.8-2.3-.9,0,0h0Z" style="fill:#254081; stroke-width:0px;"/><path d="M74.4,275c.7-6.4-7.6,1,0,0h0Z" style="fill:#254081; stroke-width:0px;"/><path d="M81.3,285.5c0-1.2-.4-3.1-1.8-1.5-5,2.8-1.1,4,1.8,1.5Z" style="fill:#254081; stroke-width:0px;"/><path d="M69.5,296.7c-6.4-1.4,0,4.8,0,0h0Z" style="fill:#254081; stroke-width:0px;"/><path d="M72.5,301.2c-5.2-3-4,6.7,0,0h0Z" style="fill:#254081; stroke-width:0px;"/><path d="M66,302.9c-2.3-1.8-.2,3.7,0,0h0Z" style="fill:#254081; stroke-width:0px;"/><path d="M46.6,304.1c-1.5-1.2-.4,1.7,0,0h0Z" style="fill:#254081; stroke-width:0px;"/><path d="M3.2,292.9c-5.6-3.9-2.8,4.1,0,0h0Z" style="fill:#254081; stroke-width:0px;"/><path d="M56.2,316.1c4-5.1,9.4,9.7,9.4,2.9-1-4.1,3-1.4,7.9-2.2,3.5-4.8-2.2-1.5-2.1-5.1-3-4.5,4.9,2.7,5.2-1.4,1-3.8-9,1-5.1-3.6-4.3-5.5-5,7.7-7.9,1,1-6.5-2.3,3.2-4.3,1.9,1.9-3.2-.2-1.5-3.1-1.9-1.3,2.6-5.6,6.2,0,8.4Z" style="fill:#254081; stroke-width:0px;"/><path d="M58.9,316.5c-2.4-.6,2.1,3.4,0,0h0Z" style="fill:#254081; stroke-width:0px;"/><path d="M48.2,320.6c2.4-1.4-4.6.1,0,0h0Z" style="fill:#254081; stroke-width:0px;"/><path d="M50.4,319.8c-2.1-.6-.4,3.3,0,0h0Z" style="fill:#254081; stroke-width:0px;"/><path d="M62.7,319.8c-5.5-6.3,0,8.9,0,0h0Z" style="fill:#254081; stroke-width:0px;"/><path d="M69.1,328c-1.1-2.9-3.9-2.8-6.1-4.8-10.3,1.5,5.1,13.5,6.1,4.8Z" style="fill:#254081; stroke-width:0px;"/><path d="M63,332c-6.7-1.1,1.1,5,4.5,4.9-1.7-2.3-1-3.4-4.5-4.9Z" style="fill:#254081; stroke-width:0px;"/><path d="M69.8,340.9c-.8-1.4-3.8-3.4-6.8-4.7-3-1.4-5-5.7-3.1.4-1.6,6.9-2.4,11.3-.6,18.3.3,4.2,9.2,4.9,9.2,2.3-.6-2.4-9.6-3-3.1-3.3,4.3-.9,0-5.6-2.1-6.9,3.3,1,4.6-3.3,6.6-6Z" style="fill:#254081; stroke-width:0px;"/><path d="M66.4,360.3c-4.1-3.3-1.8,7,0,0h0Z" style="fill:#254081; stroke-width:0px;"/><path d="M61.1,363.6c-.4-2.7-3.1,1.1,0,0h0Z" style="fill:#254081; stroke-width:0px;"/><path d="M58.5,371.8c2.5-2.9-.4-4.3,0-7.8h0c-.2-.4-.7-.5-1-.8.7.7-4.6,3.6-3.2,5.1-4.9,3.4,1.2,5.5,4.2,3.4Z" style="fill:#254081; stroke-width:0px;"/><path d="M55.3,373.8c1.4-.6-2.3-.4-2.7-1.2-2.7,2.6,2.3,3.7,2.7,1.2Z" style="fill:#254081; stroke-width:0px;"/><path d="M55,378.1c.3-3.2-4.6,1.5,0,0h0Z" style="fill:#254081; stroke-width:0px;"/><path d="M51.9,381.6c.5-2.2-5,.5,0,0h0Z" style="fill:#254081; stroke-width:0px;"/><path d="M48.9,383.9c-4-1.2-1.6,7.6,0,0h0Z" style="fill:#254081; stroke-width:0px;"/><path d="M63.1,366.4c-3-.7,1.9,2.3,0,0h0Z" style="fill:#254081; stroke-width:0px;"/><path d="M70.3,332.1c0-5.1-3.4,3,0,0h0Z" style="fill:#254081; stroke-width:0px;"/><path d="M69.4,323.6c-4.6-3-.2,3.2,0,0h0Z" style="fill:#254081; stroke-width:0px;"/><path d="M71.6,322.8c-3.2-2.5-.3,5.8,0,0h0Z" style="fill:#254081; stroke-width:0px;"/><path d="M69.7,318.3c-6.1-.5-.3,7.4,0,0h0Z" style="fill:#254081; stroke-width:0px;"/><path d="M73.1,318c-7.2,1,.3,7,0,0h0Z" style="fill:#254081; stroke-width:0px;"/><path d="M388.4,16c-2.1-3.2,1.7-6.8.9-8.8,1.1-2.4,2.6-3.3,1.7-6.3-.3-.1-1.3,0-1.1-.6-2.1-2-5,9.8-4.1,3.7,2.4-3.8-.6-5.1-1.8-1-1.5,2.6-.9,9-2.4,10.1-1.5,5.2,5.1,2.9,6.7,3Z" style="fill:#254081; stroke-width:0px;"/><path d="M380.9,22.2h-.1c-4.1,3,2.4,1.5.1,0Z" style="fill:#254081; stroke-width:0px;"/><path d="M386.2,22.3c-7.1-4.3,1.3,10.9.4,3.2,2.5-.6,3.8,4.5,4.8,0,.4-2.5-2.7-3.6-5.2-3.2Z" style="fill:#254081; stroke-width:0px;"/><path d="M392.6,42.2c-1.9-2.5-3,4.2,0,0h0Z" style="fill:#254081; stroke-width:0px;"/><path d="M381.4,50.8c1.3-1,1.6-2.8,2.8-3.9,1.8-4.9-10.2,6.2-2.8,3.9Z" style="fill:#254081; stroke-width:0px;"/><path d="M379.4,69.9c.4-3.5-2.3,2.3,0,0h0Z" style="fill:#254081; stroke-width:0px;"/><path d="M374.3,69.9c-.9,3.3,3.9,6,3.4.9,2-5.1-6-6.7-3.4-.9Z" style="fill:#254081; stroke-width:0px;"/><path d="M352.9,36c3.8-1.9,1.1,5.5,4.1.6,1-1.2.3,7.3,3.3,6.4-1.8,5,3.3,1.1,2.7,4.4,5.9,1.7,1.7.5.6,2.4-2.1-.1-.6,4.5-2,5.6-2.2-6.6-5.2-.9-5.2.6-.6-8.2-4.4,2.9-6.4-2.7-9.2-.4-2.3,13.3,2.6,8.6,1.2,4.2,2.7-5.8,3.3.5-2.4,1.2-2.8,4.3,1.5,6.5,1-4,2.5-2.1,3.4-5.3,4.8,2.4-5.5-8.5,1.5-3.8.9,6.7,1.3,1.3,4,.2-1.3,2.6-3.6,10.6-.2,5.4-.4,5.5,1,10.2-1.4,16.4-2.5,4.5-1,6.4-3.2,10.7-1.2,2.8,4.3,2.8,3.4,4.5,3.5,3.3,0-6.1,2.5-8.1-.3-5.2.6-3.1,2.5-4.1-3.4-4.7,3.9-4.4-.2-8.5-.6-4.4,1.5-5.1,3.7-7.4-2.5-2.3.3-5.9-3.4-2.6,3.4-5.7-1.1-1.6.6-4.4-2.4-.9-.3-2.2-.2-4.4.1,4.1,6.5.7,3.4-1.2-3.4,0,6.1-5.5-.9-5.3-5.1-2.3,7-.4,3.4-6-5.9,3.5.5-2,1.6-5.4-3.5.8-4.2,4.5-5.7,5.5-.4-3.4-3.6-.9-3.3-2.2,3.3-1.4,4.1-1.8,1.3-5.4-.3-6.5-3.8,3.1-4.2-1.3-2.1,2.9,5,4.4-1.7,4.7-2.2,6.1-3.4,1.1-.4-2,1.7-4-.4-2.6-.6-4.1-.2-4.3.6-3.6,1.1-8.3,2.1-2.5-.8-9.1-.7-2.9-.2,1.3-6.8-2.2-5.1,3.2-5.8,2.4,1,6,1.2,7-5.1,1.5-6.6-10.3-7.6-1.2-4.3,1.1-2.3,5.9.8,3.3Z" style="fill:#254081; stroke-width:0px;"/><path d="M328.8,70.8c-3-9-5.8,6.1,0,0h0Z" style="fill:#254081; stroke-width:0px;"/><path d="M351.9,64c-4.8-1.2,1.5,3.1,0,0h0Z" style="fill:#254081; stroke-width:0px;"/><path d="M345.2,49.9h-.3c-3.1,2.8,6.6,1.7.3,0Z" style="fill:#254081; stroke-width:0px;"/><path d="M361.5,50.9c-2-3.2-.9,4.1,0,0h0Z" style="fill:#254081; stroke-width:0px;"/><path d="M360.9,47.1c-7.5-4.4-1.9,7.7,0,0h0Z" style="fill:#254081; stroke-width:0px;"/><path d="M378.4,34.3c-.7-5.1,2.3-7.7-2-11,5.5,2-2.7-9.7,2.9-2.9,2.4-.5-.2-6.8.6-8.8-4-.5-6.8-1.3-5.7,4.5-1,3.6.7,11-1.4,3.9-3.8.4-2,12,.6,15.5,2.2-1.9.5-2.3,5.1-1.3Z" style="fill:#254081; stroke-width:0px;"/><path d="M183.1,480.9c-2-2.9-1.4,5.2,0,0h0Z" style="fill:#254081; stroke-width:0px;"/><path d="M174.2,476.2c2.9,1,6.3,8.4,4.9,2.2,1.8-5.6-3-10.3-7-14.2h0c-5.7,3.5,3.6,7.2,2.1,12Z" style="fill:#254081; stroke-width:0px;"/><path d="M172.4,474.4c-2.7-.4,2.7,5.4,0,0h0Z" style="fill:#254081; stroke-width:0px;"/><path d="M177.1,498.1c-2.4-.3,2.8,4.4,0,0h0Z" style="fill:#254081; stroke-width:0px;"/><path d="M160.3,490.4c3.3,6.2.6,14.7,9.5,16.3,4.8.8,7.5-2,6.3-5.9-2.7-2,.8-3.9-1.5-6.8-1.8-3.1-.6-11.5-7.6-12.3-2.7.8-6.7,3.9-6.7,8.7Z" style="fill:#254081; stroke-width:0px;"/><path d="M152.2,520c-1.9-2.2-3.6,3,0,0h0Z" style="fill:#254081; stroke-width:0px;"/><path d="M141.8,484.9c-.4,6.3,3.8-1.3,2.2-3.9-1.7-.1-.8,2.6-2.2,3.9Z" style="fill:#254081; stroke-width:0px;"/><path d="M119.1,489.9c4.2.5,7.4-2,9.8-4.6-.1-7.1-6.6-13.5-5.3-21.2h0c.3-4.2-6.7,2.8-8.5,4.1-1.2,3.9-2.8,6.2-1.8.2.3-1.1-6.1,1.3-6.2,3.5-1.5,3.3,1.4,5.2-.9,7.9-5,4.8,0,9.2,4,2.9-.2-4,5.8-8.3,6.5-4.5-7.9,2,2.1,6-.7,9.6-7.3,3.1,2.5,10.4,3.1,2.2Z" style="fill:#254081; stroke-width:0px;"/><path d="M132.1,474.6c.5-7.2,5.8-6.8,5.6-14.1-.2-1-2,.5-2.8.5-11.5-3.7-12.8,17-2.8,13.6Z" style="fill:#254081; stroke-width:0px;"/><path d="M185.2,475.6v-.4c-.1,0-.3-.2-.3-.2-5.4,3.5,1.8,6.7.3.6Z" style="fill:#254081; stroke-width:0px;"/><path d="M153.3,602.9c1-5.9-3.3-7.5-7.7-3.4-.3-.8,6-7.9,2.4-10.1-.5-3.2-1.5-3.9-2.8-6.2,0-6.1,7.7,1.5,7.9,4.6,0,4.8-2.5,8.6,1.1,12.8,2.3,0,3.1-4.4,2.9-7,3.2-4.2-.2-6.4-.6-10.7-2-3.7-2.1-13.1-8.2-10.9-5.2-1-10.3,1.8-13.1,6-3.2-7.1,6.9-9.1,10.5-12.8,3.9-4.2-6.6-12.8-3.7-6.2,3.5,4.1,2.7,2.8-1.2,1.1-1.3-4.6-3.7-10-7.5-13.7-4.8.2,2.1-10.1-5.2-6.9,1.6-6,0-18.1-9.1-13.3-2.8-1.6-7.2-3.1-10.9-3h0c-1.7,0-3.2.4-4.4,1.2-5.6,1.9-10.3,5.5-16.8,5.2-5.8-4.5-3.9,1.6-6.3,5.7-.7,6.9-6.8,4.5-11.5,4.5-.2-.2-.3-.5-.4-.8l-.6.5c-.5,0-1,.2-1.3.5-.8.9-1.5-.6-2.4.4-1.7-.6-2.3,1.4-3.1,2.4-.1.5-.7,1-1,1.4,0,0,0,.1-.1.2,0,.2-.2.3-.2.5,0,.1,0,.2,0,.3.6.1.7.3.7.5,0,0,0,.2,0,.3-.1.2-.3.4-.4.6,0,.1,0,.2,0,.3,0,.2,0,.3.2.5,0,.2,0,.3-.1.5-.2.4-.4.8-.8,1.1,0,0,0,0,0,0-.3.2-.5.5-.8.7,0,.9-.3,1.9-.3,2.8,0,.3,0,.5.2.8,0,0,0,0,0,.1,0,.3,0,.7-.1,1-.2,1-.6,2.1-1.5,2.8,0,1.2-.8,2.1-1.8,2.6h0s0,0,0,0c-.1.2-.2.5-.3.8,0,0,0,.2,0,.3,0,.3-.1.5-.2.8-.1.8-.3,1.6-.5,2.3-.1.2-.2.5-.2.9s0,.7,0,1c0,.2,0,.4-.2.6,0,0,0,.1-.1.2,0,0-.2,0-.2.1-.1,0-.3,0-.5,0-1-.7-2.1-.3-3.2-.3-.9-.5-1.5,0-2.1.6,0,0-.1.1-.2.2-.3.3-.6.6-.9.8-1.5.3-2.5,2.6-4.1,1.5-1.4-.7-2.2-2.6-3.9-2.8-.4,0-.7.2-.9.4,0,0-.1.2-.2.3-.5.7-.5,1.9-.9,2.5-.1,0-.3.1-.4.2,0,0,0,0,0,0-.2.1-.3.3-.4.4,0,0-.1.2-.2.3,0,0,0,.2-.1.3,0,.1-.1.3-.2.4,0,.1,0,.2-.2.3,0,.2-.2.3-.3.4,1.1,1,2.6,1.7,3,3.3,1.3-.2,2.7-.2,3.8.4,1.2,0,2,2,3,.8h0s0,0,0,0c0-.1.2-.2.3-.3,0,0,.2,0,.2,0,.2,0,.3.2.4.4,0,0,0,.1,0,.2,0,.1,0,.2,0,.4,0,0,0,.1,0,.2,0,.2-.1.4-.4.5-1.9,1.4-4.4,2-5.4,4.3,0,0,0,0,0,.1,0,0,0,.2,0,.2,0,.1-.2.3-.4.3-.4.2-.9.3-1.2.6,0,0-.1,0-.1.2,0,0,0,0,0,.2s0,.1,0,.2c-1.7.2-3.4,0-5.1.1-.8-.3-1.2-1.5-2.1-.3-.4.3-.8.6-1.2.9-.1,0-.2.2-.3.2-.3.3-.5.5-.7.8,0,0,0,.2-.1.3,0,0,0,.2,0,.3,0,.2,0,.4,0,.6,0,.2,0,.3-.1.5-.3.6-1,1-1.8.8h0c0,.2-.2.3-.3.4-.8.9-2,1.2-3.3,1.4h0c0,0,0,.1,0,.2,0,0,0,0,0,0,0,.4.9.9.9,1.4,0,.2-.1.3-.5.5h0s0,0,0,0c.8.8,1.8,1.6,2.4,2.6,1.3,1.5,2.3,3.7,4.4,4.2,1.5,0,1.6,1.5,2,2.5,1,1.4,2.1,3.1,4,3.4,1.7,1.6.8,4.3,1.8,6.2,2.5.8,5.4.6,8.1,1.2.7.6.7,2.3,1.9,1.2,1.5.7.8,2.6,2,3.4,1.5-.4,1.5,1.7,2.9,1.5,1.1-.5,2,.2,2.9.6.5,0,.9-.4,1.3-.7.1-.1.3-.3.4-.4.2-.2.3-.4.5-.6,0,0,0,0,0-.1.1-.1.2-.2.3-.3.1-.1.2-.2.4-.3.4-.7,1.8-1.8,2.2-.5,0,0,0,.2,0,.2,0,0,0,.1,0,.2,0,.2-.2.3-.4.5,0,0,0,0,0,0-.1.1-.3.2-.4.3,0,0,0,.1-.1.2,0,0,0,0,0,.1,0,.1.2.2.6.4.9.5,2.4-1,2.5.7.7.6,1.3,1.7,2.3.7,1.5.2,2.3-1.3,2.5-2.5.3-.2.4-.5.5-.7,0,0,0-.2,0-.3,0-.4-.2-.7-.2-1.1,0-.1,0-.3,0-.4,0-.1,0-.2,0-.4,1.1-.4,1.5-1.4,1.6-2.5.9.1,1.6-.5,2.5-.4.2,0,.3,0,.4-.1s.2-.1.3-.2c0,0,0-.1,0-.2,0,0,0-.1,0-.2,0-.3,0-.6,0-.9,0-.3,0-.6,0-.9,0-.1.1-.3.2-.4,0-.1,0-.2,0-.3,0-.7-.7-1.3-1.2-1.8.7-1.4-2.1-1.1-1.5-2.2,0,0,0,0,0-.1.8-.6,1.5-1.2,1.6-2.3,1.4-.2,2.4-1.2,3.2-2.2.2-.4.4-.7.7-1.1,0-.1.2-.2.2-.3.2-.3.5-.6.7-.9.2-.3.5-.6.7-.9.2-.3.4-.6.6-.8.1-.2.2-.3.3-.5,0-.1.1-.2.2-.4,1.5-.8,2.5,1.5,4,1.2.9.5,1.3,1.8,2.2,2.3.9.5.2,2.4,1.5,2.2,1.1.7,1.3,2.2,1.7,3.4,0,.2,0,.3.2.5-.2.2-.2.5-.3.7,0,1,1,1.7,1.5,2.6,0,2.1,1.1,4.1,2.9,5.1.7.2,1.3,1.6,1.8,1.2,0,0,0,0,.1-.1,0,0,0-.1.1-.2,0-.2.2-.4.3-.5.7-.8,2,.5,2.9.7.9.6,1.4,1.6,1.6,2.7,0,.4,0,.7,0,1.1,0,.2,0,.4,0,.6-.3.7-.7,1.4-1,2.1,0,.2-.1.5-.2.7,0,.3,0,.6,0,.9,0,.3.1.6.3.9,1.1.9,1.2,3.3,3.1,2.9.6-.9,1.9-.7,2.7-1.2,1.1.4,1.9,0,2.5-.9,0,0,0-.1.1-.2,0,0,0,0,0-.1,0,0,.1-.1.2-.2.5-.3,1.2,0,1.5.6.5,1.4,1.7-.2,2.3.5.5-.4,1.3-.6,1.8-1,0,0,0,0,0,0,.2-.2.3-.3.3-.6,0-.1,0-.3,0-.5.2-1.5,1.9.2,2.4-1,.6-1,1.7-.8,2.1.2l.8.5c0,0,0-.1.2-.2,0,0,0,0,0,0,0,0,.2-.2.3-.2.1,0,.3-.1.5-.2.3.5.8.8,1.4,1.1,2.6,1.3,7.2,1.3,4.5,3.4,4.5,1.6,11.1-4,11.8-8.9-.4-4.8.8-9.3,6.8-8.7,5,3,7.1-.5,9.8-5.1Z" style="fill:#254081; stroke-width:0px;"/><path d="M165.6,813.8c-2.9.9,2.4,1.8,0,0h0Z" style="fill:#254081; stroke-width:0px;"/><path d="M164.3,803.3c-1.8-1.2-.2,3.2,0,0h0Z" style="fill:#254081; stroke-width:0px;"/><path d="M200.8,692.1c2.9-1.1-1.5-8-3.9-6.6-4.2,3.6,3.3,2.5,3.9,6.6Z" style="fill:#254081; stroke-width:0px;"/><path d="M213.4,701.7c3.5-2,6-7.8,10.8-10,6.6-3.5,1.7-7.6-3.3-3.8-3.6-3.4-3.7-11.7-11.5-10.9h0c-2.8.5-4.3,1.5-7,2.2-1.7,5.2-.4,12.1,2.9,17,2.8,2.6,3.9,5.8,8,5.5Z" style="fill:#254081; stroke-width:0px;"/></g></svg>